<svg width="121" height="137" viewBox="0 0 121 137" fill="none" xmlns="http://www.w3.org/2000/svg">
<g clip-path="url(#clip0_164_806)">
<path d="M0 38.41V98.22C0 101.26 1.62 104.07 4.25 105.58L56.04 135.48C58.67 137 61.91 137 64.54 135.48L116.33 105.58C118.96 104.06 120.58 101.25 120.58 98.22V38.41C120.58 35.37 118.96 32.56 116.33 31.05L64.55 1.14C61.92 -0.38 58.68 -0.38 56.05 1.14L4.25 31.04C1.62 32.56 0 35.37 0 38.4V38.41Z" fill="#851A50"/>
<path d="M61.43 101.69H30.02C29.35 101.69 28.77 101.23 28.61 100.58C28.45 99.9299 28.76 99.2599 29.35 98.9499L39.39 93.7199C31.55 87.1999 26.93 77.4399 26.93 67.1799C26.93 48.1499 42.41 32.6699 61.43 32.6699C80.45 32.6699 95.94 48.1499 95.94 67.1799C95.94 86.2099 80.46 101.69 61.43 101.69ZM35.94 98.7899H61.43C78.86 98.7899 93.04 84.6099 93.04 67.1799C93.04 49.7499 78.86 35.5699 61.43 35.5699C44 35.5699 29.83 49.7499 29.83 67.1799C29.83 77.2899 34.72 86.8599 42.92 92.7899C43.33 93.0799 43.55 93.5699 43.52 94.0699C43.48 94.5699 43.19 95.0199 42.74 95.2499L35.95 98.7899H35.94ZM62.89 82.7099L64.07 74.4199C64.1 74.2399 63.96 74.0899 63.78 74.0899H57.14C56.99 74.0899 56.87 74.1999 56.85 74.3399L55.65 82.7999C55.63 82.9399 55.51 83.0499 55.36 83.0499H52.86C52.68 83.0499 52.54 82.8899 52.57 82.7199L53.75 74.4299C53.78 74.2499 53.64 74.0999 53.46 74.0999H49.35C49.17 74.0999 49.04 73.9399 49.06 73.7699L49.35 71.5399C49.37 71.3899 49.49 71.2799 49.64 71.2799H53.95C54.1 71.2799 54.22 71.1699 54.24 71.0299L55.16 64.6499C55.19 64.4699 55.05 64.3199 54.87 64.3199H50.76C50.58 64.3199 50.45 64.1699 50.47 63.9899L50.76 61.7099C50.78 61.5599 50.9 61.4499 51.05 61.4499H55.36C55.51 61.4499 55.63 61.3399 55.65 61.1999L56.9 52.7399C56.92 52.5999 57.04 52.4899 57.19 52.4899H59.69C59.87 52.4899 60.01 52.6499 59.98 52.8299L58.76 61.1199C58.73 61.2999 58.87 61.4599 59.05 61.4599H65.69C65.84 61.4599 65.96 61.3499 65.98 61.2099L67.18 52.7499C67.2 52.6099 67.32 52.4999 67.47 52.4999H69.97C70.15 52.4999 70.29 52.6599 70.26 52.8399L69.04 61.1299C69.01 61.3099 69.15 61.4699 69.33 61.4699H73.53C73.71 61.4699 73.84 61.6199 73.82 61.7999L73.53 64.0799C73.51 64.2299 73.39 64.3399 73.24 64.3399H68.84C68.69 64.3399 68.57 64.4499 68.55 64.5899L67.63 70.9699C67.6 71.1499 67.74 71.2999 67.92 71.2999H72.11C72.29 71.2999 72.43 71.4599 72.4 71.6399L72.08 73.8699C72.06 74.0099 71.94 74.1199 71.79 74.1199H67.43C67.28 74.1199 67.16 74.2299 67.14 74.3699L65.94 82.8299C65.92 82.9699 65.8 83.0799 65.65 83.0799H63.19C63.01 83.0799 62.87 82.9199 62.9 82.7499L62.89 82.7099ZM58.29 64.2999L57.29 71.2599H64.52L65.52 64.2999H58.29Z" fill="white"/>
</g>
<defs>
<clipPath id="clip0_164_806">
<rect width="120.6" height="136.62" fill="white"/>
</clipPath>
</defs>
</svg>
