<svg viewBox="0 0 32 32" fill='#841A4F' xmlns="http://www.w3.org/2000/svg">
    <path d="M29.3333 2.66667C29.3333 2.66667 19.1467 2.17334 11.12 13.1733C4.96 21.6133 2.66666 29.3333 2.66666 29.3333L5.25333 28C7.17333 24.6667 8.17333 23.2933 10.0533 21.3333C13.4267 22.32 16.9467 22.2 20 18.6667C17.3333 17.92 15.2 18.0933 12.0533 18.4133C15.5867 16 18 15.4667 21.3333 16L22.6667 13.3333C20.2667 12.88 18.6667 12.84 16.2933 13.3867C18.92 11.5333 20.7467 10.4933 24 10.6667L25.6133 8.09334C23.5333 7.94667 22.28 8.17334 19.8933 8.76001C22.04 6.81334 24 5.93334 26.8533 5.76001C26.8533 5.76001 28.2533 3.24001 29.3333 2.66667Z"/>
</svg>